<?xml version="1.0" encoding="utf-8"?>
<!-- Generator: Adobe Illustrator 24.1.2, SVG Export Plug-In . SVG Version: 6.00 Build 0)  -->
<svg version="1.1" id="Layer_1" xmlns="http://www.w3.org/2000/svg" xmlns:xlink="http://www.w3.org/1999/xlink" x="0px" y="0px"
	 viewBox="0 0 70.8 44" style="enable-background:new 0 0 70.8 44;" xml:space="preserve">
<style type="text/css">
	.st0{fill:#FFFFFF;}
	.st1{fill:#D39643;}
</style>
<g>
	<g id="Layer_2_1_">
	</g>
	<g>
		<path class="st0" d="M17,26.2c-0.2-1.2-0.8-2.1-1.8-2.8c-0.3-0.2-0.7-0.3-1.1-0.6c0.1-0.1,0.2-0.1,0.2-0.1c1.9-1.1,2.6-2.8,2-5.1
			c-0.5-2-2-3.2-4.1-3.4C10.7,14,9.1,14.1,7.5,14c-2.6,0-7.3,0-7.3,0s0,1.1,0,1.7c0,2.5,0,5.1,0,7.6c0,1.7,0,3.3,0,5v2.3
			c0,0.5,0,1.7,0,1.7c3.7,0,7.6,0,11.3,0c1.4,0,2.7-0.2,3.8-1.2C16.8,29.8,17.2,28.1,17,26.2z M2.3,15.9c0.1,0,0.2,0,0.2,0
			c2.6,0,5.3,0,7.9,0c0.7,0,1.4,0.1,2,0.3c1.2,0.3,1.9,1.6,1.9,2.9c0,1.2-0.8,2.1-2,2.5c-0.8,0.2-1.6,0.2-2.5,0.3
			c-2.5,0-4.9,0-7.3,0c-0.1,0-0.1,0-0.2,0C2.3,22,2.3,15.9,2.3,15.9z M13,30.2c-0.5,0.1-0.9,0.3-1.4,0.3c-3,0-6.2,0-9.3,0v-6.8
			c0.2,0,0.3,0,0.6,0c2.5,0,5.1,0,7.6,0c0.8,0,1.7,0.1,2.4,0.3c1.2,0.3,2,1.6,2,3C15,28.7,14.3,29.7,13,30.2z M7.5,14.1
			c-2.6,0-7.3,0-7.3,0s0,1.1,0,1.7"/>
		<path class="st0" d="M32.4,19.1c0,2.9,0,5.9,0,8.8c0,2.3-1.4,3.5-3.4,4.1c-1.1,0.3-2.3,0.5-3.4,0.5s-2.3-0.1-3.4-0.5
			c-2-0.6-3.3-1.8-3.4-4.1c0-2.9,0-5.9,0-8.8c0-0.1,0-0.1,0-0.2l0,0c0-0.1,0-0.2,0-0.3v-1.1c0,0,1.4,0,1.9,0c0,0,0,0.8,0,1.4V19
			c0,2.8,0,5.6,0,8.6c0,1.8,0.6,2.6,2.4,2.9c0.8,0.2,1.6,0.3,2.4,0.3s1.6-0.1,2.4-0.3c1.8-0.5,2.4-1.1,2.4-2.9c0-2.8,0-5.6,0-8.6
			v-1.5c0.7,0,1.2,0,1.9,0C32.4,17.4,32.4,19,32.4,19.1z"/>
		<rect x="34.5" y="-0.2" class="st0" width="1.9" height="32.5"/>
		<path class="st0" d="M51.9,30.6v1.7c-2.1,0-11.3,0-13.4,0v-1.6c0-0.1,0-0.2,0-0.3v-1c0-3.5,0-6.9,0-10.4v-1.7c0.7,0,1.2,0,1.9,0
			v2.6c0,3.6,0,10.7,0,10.7S50.5,30.6,51.9,30.6z"/>
		<path class="st0" d="M69.8,18.9c-1-2.7-2.7-4.4-5.2-4.5c-1.7-0.1-10.8-0.1-10.8-0.1s0,4.6,0,9.1s0,9.1,0,9.1s9.3,0,10.8-0.1
			c2.5-0.2,4.2-1.8,5.2-4.5c0.6-1.5,0.8-2.9,0.8-4.4C70.6,21.8,70.4,20.3,69.8,18.9z M68.1,26.7c-0.5,1.4-1.1,2.6-2.3,3
			c-0.8,0.3-1.7,0.6-2.5,0.7c-1.7,0.1-5.4,0-7.1,0.1c-0.5,0-0.6-0.1-0.6-0.7c0-2.3,0-4.4,0-6.7s0-4.4,0-6.7c0-0.6,0.1-0.7,0.6-0.7
			c1.7,0,5.4,0,7.1,0.1c0.8,0,1.7,0.3,2.5,0.7c1.1,0.6,1.9,1.7,2.3,3c0.3,1.1,0.6,2.4,0.6,3.5C68.6,24.4,68.5,25.5,68.1,26.7z"/>
		<path class="st1" d="M30.5,4C30.2,4.2,30,4.4,30,4.8c0,3.7,0,7.4,0,11.1c0,0.2,0,0.5,0,0.7c0,0.1,0.1,0.2,0.2,0.2c1,0,1.9,0,2.9,0
			V2.5C32.4,3.1,31.5,3.5,30.5,4z M32.5,11.7h-1.6V11h1.6V11.7z M32.5,10.9h-1.6v-0.7h1.6V10.9z M32.5,10.1h-1.6V9.4h1.6V10.1z
			 M32.5,9.3h-1.6V8.6h1.6V9.3z M32.5,8.4h-1.6V7.8h1.6V8.4z M32.5,7.6h-1.6V7h1.6V7.6z M32.5,6.8h-1.6V6.2h1.6V6.8z M32.5,6h-1.6
			V5.5h1.6V6z"/>
		<path class="st1" d="M29.4,16.8c-2.5,0-5,0-7.3,0c0-0.1,0-0.1,0-0.2c1.8,0,3.6,0,5.4,0c0.7,0,0.7,0,0.7-0.8c0-2.8,0-5.6,0-8.5
			c0-0.7,0.2-1,0.7-1.2C29,6,29.2,5.9,29.4,5.8C29.4,9.6,29.4,13.2,29.4,16.8z"/>
		<path class="st1" d="M37.5,2.5v14.3c1,0,2,0,2.9,0c0.1,0,0.2-0.1,0.2-0.2c0-0.2,0-0.5,0-0.7c0-3.7,0-7.4,0-11.1
			c0-0.5-0.1-0.7-0.6-0.8C39.3,3.5,38.6,3.1,37.5,2.5z M38.4,11H40v0.7h-1.6V11z M38.4,10.2H40v0.7h-1.6V10.2z M38.4,9.4H40v0.7
			h-1.6V9.4z M38.4,8.6H40v0.7h-1.6V8.6z M38.4,7.8H40v0.7h-1.6V7.8z M38.4,7H40v0.7h-1.6V7z M38.4,6.2H40v0.7h-1.6V6.2z M38.4,5.5
			H40v0.7h-1.6V5.5z"/>
		<path class="st1" d="M41.5,16.8c2.5,0,5,0,7.3,0c0-0.1,0-0.1,0-0.2c-1.8,0-3.6,0-5.4,0c-0.7,0-0.7,0-0.7-0.8c0-2.8,0-5.6,0-8.5
			c0-0.7-0.2-1-0.7-1.2c-0.1-0.1-0.3-0.2-0.6-0.3C41.5,9.6,41.5,13.2,41.5,16.8z"/>
	</g>
	<g>
		<path class="st1" d="M39.5,43.2c-1.6,0-2.9-0.5-3.9-1.8c-1.7-2.3-0.5-5.6,2.4-6.3c1.2-0.3,2.6-0.3,3.8,0.2
			c1.6,0.7,2.6,2.3,2.5,3.9c-0.1,1.8-1.4,3.2-3.2,3.6C40.6,43.1,40,43.1,39.5,43.2z M39.6,35.7C39,35.8,38.4,35.8,38,36
			c-1.1,0.3-1.9,1.1-2.1,2.4c-0.2,1.2,0,2.4,1,3.3c1.2,1,2.7,1.1,4.3,0.7c2.1-0.7,3-2.9,1.9-4.9C42.2,36.1,40.9,35.7,39.6,35.7z"/>
		<path class="st1" d="M58,41.5c0-1,0-2.1,0-3.2c0-0.8,0-1.6,0-2.4c0-0.3-0.1-0.6-0.2-0.9c0.3,0,0.8,0,1.1,0
			c-0.1,0.3-0.2,0.6-0.2,0.9c0,2,0,4.1,0,6.1c0,0.2,0.1,0.6,0.2,0.9c-0.5,0-0.9,0-1.4,0c0-0.3,0-0.6-0.2-0.8c-1.7-1.9-3.3-3.8-5-5.8
			c-0.1-0.1-0.2-0.1-0.3-0.3c0,0.5,0,0.8,0,1.1c0,1.7,0,3.3,0,5c0,0.3,0.1,0.6,0.2,0.9c-0.3,0-0.8,0-1.1,0c0.1-0.2,0.2-0.6,0.2-0.8
			c0-2,0-4.1,0-6.2c0-0.3-0.1-0.6-0.2-0.9c0.6,0,1.2,0,1.8,0c0.1,0.3,0.1,0.7,0.2,0.9c1.6,1.9,3.2,3.7,4.7,5.5H58z"/>
		<path class="st1" d="M27.7,40.9c0.2,0.3,0.6,0.7,0.8,0.9c-0.3,0.2-0.7,0.5-1,0.7c-1.5,1-4.3,1.1-5.8,0.1c-1.6-1.1-2.1-2.8-1.6-4.6
			c0.5-1.5,2-2.7,3.8-2.8c1.4-0.1,2.6,0.1,3.7,0.7c0.2,0.1,0.5,0.1,0.7,0.2c-0.2,0.3-0.5,0.7-0.7,1.1c-0.1-0.2-0.2-0.5-0.5-0.6
			c-1.4-0.8-2.8-1-4.3-0.5c-1.5,0.6-2.3,1.8-2,3.4c0.1,1.5,1.2,2.7,2.7,2.9c1.4,0.3,2.7,0,3.8-0.9C27.5,41.3,27.6,41.1,27.7,40.9z"
			/>
		<path class="st1" d="M13.1,43c-0.3,0-0.8,0-1.2,0c0.1-0.3,0.1-0.6,0.1-0.9c0-2,0-4.2,0-6.2c0-0.2-0.1-0.5-0.2-0.8
			c0.3,0,0.8,0,1.2,0c-0.1,0.2-0.2,0.6-0.2,0.9c0,2,0,4.2,0,6.2C13,42.6,13.1,42.8,13.1,43z"/>
	</g>
</g>
</svg>
